HIERARCHY
ROOT hip
{
  OFFSET 0 0 0
  CHANNELS 6 Xposition Yposition Zposition Zrotation Yrotation Xrotation
  JOINT abdomen
  {
    OFFSET 0 20.6881 -0.73152
    CHANNELS 3 Zrotation Xrotation Yrotation
    JOINT chest
    {
      OFFSET 0 11.7043 -0.48768
      CHANNELS 3 Zrotation Xrotation Yrotation
      JOINT neck
      {
        OFFSET 0 22.1894 -2.19456
        CHANNELS 3 Zrotation Xrotation Yrotation
        JOINT head
        {
          OFFSET -0.24384 7.07133 1.2192
          CHANNELS 3 Zrotation Xrotation Yrotation
          JOINT leftEye
          {
            OFFSET 4.14528 8.04674 8.04672
            CHANNELS 3 Zrotation Xrotation Yrotation
            End Site
            {
              OFFSET 1 0 0
            }
          }
          JOINT rightEye
          {
            OFFSET -3.6576 8.04674 8.04672
            CHANNELS 3 Zrotation Xrotation Yrotation
            End Site
            {
              OFFSET 1 0 0
            }
          }
        }
      }
      JOINT rCollar
      {
        OFFSET -2.68224 19.2634 -4.8768
        CHANNELS 3 Zrotation Xrotation Yrotation
        JOINT rShldr
        {
          OFFSET -8.77824 -1.95073 1.46304
          CHANNELS 3 Zrotation Xrotation Yrotation
          JOINT rForeArm
          {
            OFFSET -28.1742 -1.7115 0.48768
            CHANNELS 3 Zrotation Xrotation Yrotation
            JOINT rHand
            {
              OFFSET -22.5879 0.773209 7.07136
              CHANNELS 3 Zrotation Xrotation Yrotation
              JOINT rThumb1
              {
                OFFSET -1.2192 -0.487915 3.41376
                CHANNELS 3 Zrotation Xrotation Yrotation
                JOINT rThumb2
                {
                  OFFSET -3.37035 -0.52449 3.41376
                  CHANNELS 3 Zrotation Xrotation Yrotation
                  End Site
                  {
                    OFFSET -1.78271 -1.18214 1.43049
                  }
                }
              }
              JOINT rIndex1
              {
                OFFSET -7.75947 0.938293 5.60832
                CHANNELS 3 Zrotation Xrotation Yrotation
                JOINT rIndex2
                {
                  OFFSET -2.54057 -0.884171 1.56538
                  CHANNELS 3 Zrotation Xrotation Yrotation
                  End Site
                  {
                    OFFSET -1.62519 -0.234802 1.16502
                  }
                }
              }
              JOINT rMid1
              {
                OFFSET -8.24714 1.18213 3.41376
                CHANNELS 3 Zrotation Xrotation Yrotation
                JOINT rMid2
                {
                  OFFSET -3.10165 -0.590103 1.0647
                  CHANNELS 3 Zrotation Xrotation Yrotation
                  End Site
                  {
                    OFFSET -2.48547 -0.328903 0.83742
                  }
                }
              }
              JOINT rRing1
              {
                OFFSET -8.82822 0.546677 1.51678
                CHANNELS 3 Zrotation Xrotation Yrotation
                JOINT rRing2
                {
                  OFFSET -2.60934 -0.819778 -0.0198488
                  CHANNELS 3 Zrotation Xrotation Yrotation
                  End Site
                  {
                    OFFSET -2.33842 -0.294052 0.168128
                  }
                }
              }
              JOINT rPinky1
              {
                OFFSET -8.27202 -0.0477905 -0.4584
                CHANNELS 3 Zrotation Xrotation Yrotation
                JOINT rPinky2
                {
                  OFFSET -1.82734 -0.647385 -0.700984
                  CHANNELS 3 Zrotation Xrotation Yrotation
                  End Site
                  {
                    OFFSET -1.69225 -0.51767 -0.607171
                  }
                }
              }
            }
          }
        }
      }
      JOINT lCollar
      {
        OFFSET 2.68224 19.2634 -4.8768
        CHANNELS 3 Zrotation Xrotation Yrotation
        JOINT lShldr
        {
          OFFSET 8.77824 -1.95073 1.46304
          CHANNELS 3 Zrotation Xrotation Yrotation
          JOINT lForeArm
          {
            OFFSET 28.1742 -1.7115 0.48768
            CHANNELS 3 Zrotation Xrotation Yrotation
            JOINT lHand
            {
              OFFSET 22.5879 0.773209 7.07136
              CHANNELS 3 Zrotation Xrotation Yrotation
              JOINT lThumb1
              {
                OFFSET 1.2192 -0.487915 3.41376
                CHANNELS 3 Zrotation Xrotation Yrotation
                JOINT lThumb2
                {
                  OFFSET 3.37035 -0.52449 3.41376
                  CHANNELS 3 Zrotation Xrotation Yrotation
                  End Site
                  {
                    OFFSET 1.78271 -1.18214 1.43049
                  }
                }
              }
              JOINT lIndex1
              {
                OFFSET 7.75947 0.938293 5.60832
                CHANNELS 3 Zrotation Xrotation Yrotation
                JOINT lIndex2
                {
                  OFFSET 2.54057 -0.884171 1.56538
                  CHANNELS 3 Zrotation Xrotation Yrotation
                  End Site
                  {
                    OFFSET 1.62519 -0.234802 1.16502
                  }
                }
              }
              JOINT lMid1
              {
                OFFSET 8.24714 1.18213 3.41376
                CHANNELS 3 Zrotation Xrotation Yrotation
                JOINT lMid2
                {
                  OFFSET 3.10165 -0.590103 1.0647
                  CHANNELS 3 Zrotation Xrotation Yrotation
                  End Site
                  {
                    OFFSET 2.48547 -0.328903 0.83742
                  }
                }
              }
              JOINT lRing1
              {
                OFFSET 8.82822 0.546677 1.51678
                CHANNELS 3 Zrotation Xrotation Yrotation
                JOINT lRing2
                {
                  OFFSET 2.60934 -0.819778 -0.0198488
                  CHANNELS 3 Zrotation Xrotation Yrotation
                  End Site
                  {
                    OFFSET 2.33842 -0.294052 0.168128
                  }
                }
              }
              JOINT lPinky1
              {
                OFFSET 8.27202 -0.0477905 -0.4584
                CHANNELS 3 Zrotation Xrotation Yrotation
                JOINT lPinky2
                {
                  OFFSET 1.82734 -0.647385 -0.700984
                  CHANNELS 3 Zrotation Xrotation Yrotation
                  End Site
                  {
                    OFFSET 1.69225 -0.51767 -0.607171
                  }
                }
              }
            }
          }
        }
      }
    }
  }
  JOINT rButtock
  {
    OFFSET -8.77824 4.35084 1.2192
    CHANNELS 3 Zrotation Xrotation Yrotation
    JOINT rThigh
    {
      OFFSET 0 -1.70687 -2.19456
      CHANNELS 3 Zrotation Xrotation Yrotation
      JOINT rShin
      {
        OFFSET 0 -36.8199 0.73152
        CHANNELS 3 Zrotation Xrotation Yrotation
        JOINT rFoot
        {
          OFFSET 0.73152 -45.1104 -5.12064
          CHANNELS 3 Zrotation Xrotation Yrotation
          End Site
          {
            OFFSET -1.1221 -3.69964 12.103
          }
        }
      }
    }
  }
  JOINT lButtock
  {
    OFFSET 8.77824 4.35084 1.2192
    CHANNELS 3 Zrotation Xrotation Yrotation
    JOINT lThigh
    {
      OFFSET 0 -1.70687 -2.19456
      CHANNELS 3 Zrotation Xrotation Yrotation
      JOINT lShin
      {
        OFFSET 0 -36.8199 0.73152
        CHANNELS 3 Zrotation Xrotation Yrotation
        JOINT lFoot
        {
          OFFSET -0.73152 -45.1104 -5.12064
          CHANNELS 3 Zrotation Xrotation Yrotation
          End Site
          {
            OFFSET 1.1221 -3.69964 12.103
          }
        }
      }
    }
  }
}
MOTION
Frames:	4
Frame Time:	0.03333
0.057983330153876196 43.08522260522312 0.014323945558621456 -0.43798908591270447 16.61870002746582 10.39902400970459 -2.622079849243164 8.227020263671875 7.914539337158203 -0.9268288612365723 -9.036689758300781 2.1459097862243652 -7.826647758483887 17.299999237060547 -9.894840240478516 7.247038841247559 -28.210599899291992 -17.86989974975586 -0.0 0.0 -0.0 -0.0 0.0 -0.0 -0.0 1.5266661632790113e-13 -5.91583151823144e-13 -31.859296798706055 45.218597412109375 95.85729217529297 -28.419998168945312 -34.794700622558594 75.00599670410156 -0.2437230348587036 13.919299125671387 1.9960598945617676 1.8232210186042153e-09 1.9470082490702367e-10 -3.328100461885697e-09 3.1184193005628913e-09 3.4624789146953106e-10 -5.7672995268376326e-09 1.8232210186042153e-09 1.9470082490702367e-10 -3.3281069011792397e-09 7.7309088706970215 5.474880218505859 0.41731396317481995 1.8232210186042153e-09 1.9470082490702367e-10 -3.328100461885697e-09 2.9055399894714355 0.9651829600334167 0.10290198773145676 1.8232210186042153e-09 1.9470082490702367e-10 -3.328100461885697e-09 10.27859878540039 0.73180091381073 0.025912299752235413 1.8232210186042153e-09 1.9470082490702367e-10 -3.328100461885697e-09 2.2216696739196777 -0.7334870100021362 -0.2089199721813202 -0.0 1.5266661632790113e-13 -5.91583151823144e-13 -86.16319274902344 58.86479187011719 13.877498626708984 28.08639907836914 -39.93170166015625 -83.79949951171875 0.05827011540532112 -6.882700443267822 0.9720039367675781 1.0643407682975337e-10 3.581049901058009e-10 1.272050020872939e-09 1.836324980963866e-10 6.129818874711646e-10 2.2003903143996695e-09 1.0643407682975337e-10 3.581049901058009e-10 1.272050020872939e-09 -7.7309088706970215 5.474880218505859 -0.41731396317481995 1.0643407682975337e-10 3.581304419686404e-10 1.2720627884377222e-09 -2.9055399894714355 0.9651829600334167 -0.10290198773145676 1.0643407682975337e-10 3.581304419686404e-10 1.272050020872939e-09 -10.27859878540039 0.73180091381073 -0.025912299752235413 1.0643407682975337e-10 3.581049901058009e-10 1.2720373643304583e-09 -2.2216696739196777 -0.7334870100021362 0.2089199721813202 -0.0 0.0 -0.0 12.405099868774414 -40.325496673583984 9.913278579711914 -0.872409999370575 57.57019805908203 1.5797300338745117 -6.823929786682129 -20.756999969482422 -13.761999130249023 -0.0 0.0 -0.0 -7.638619422912598 -44.82599639892578 -6.408919811248779 1.1320598125457764 61.68620300292969 -1.7504298686981201 5.591729640960693 -13.279499053955078 14.897799491882324
0.10026761390777023 43.15306004405969 0.01546986111993484 -0.44001054763793945 16.334400177001953 10.276025772094727 -2.750419855117798 8.004240036010742 7.995709419250488 -0.9444168210029602 -9.037699699401855 2.1659798622131348 -7.7994890213012695 17.18440055847168 -9.875977516174316 7.3263983726501465 -27.768299102783203 -17.811697006225586 -0.0 0.0 -0.0 -0.0 0.0 -0.0 2.5444436054650188e-14 5.0888872109300376e-14 -5.470553480699247e-13 -32.230594635009766 45.62950134277344 96.69769287109375 -28.417095184326172 -34.703495025634766 74.8554916381836 -0.2483009696006775 14.049799919128418 2.0155200958251953 1.4976849760373057e-09 -1.878053823567427e-10 -2.339787696925555e-09 2.5654098845251383e-09 -3.211342303188758e-10 -4.055410673942106e-09 1.4976849760373057e-09 -1.878053823567427e-10 -2.339787696925555e-09 7.7309088706970215 5.474880218505859 0.41731396317481995 1.4976849760373057e-09 -1.878053823567427e-10 -2.339781257632012e-09 2.9055399894714355 0.9651829600334167 0.10290198773145676 1.4977104001445696e-09 -1.878053823567427e-10 -2.339781257632012e-09 10.27859878540039 0.73180091381073 0.025912299752235413 1.4976849760373057e-09 -1.878053823567427e-10 -2.339781257632012e-09 2.2216696739196777 -0.7334870100021362 -0.2089199721813202 2.5444436054650188e-14 5.0888872109300376e-14 -5.470553480699247e-13 -87.52039337158203 59.316795349121094 15.923099517822266 28.07919692993164 -39.97509765625 -83.87659454345703 0.05768650025129318 -6.846229553222656 0.966808021068573 1.6918005885102616e-10 -2.1095981905805417e-10 8.157041153644684e-10 2.933489007261869e-10 -3.595298780911804e-10 1.4105568935107726e-09 1.6915460698818663e-10 -2.1093438107300244e-10 8.157168274181004e-10 -7.7309088706970215 5.474880218505859 -0.41731396317481995 1.6918005885102616e-10 -2.1093438107300244e-10 8.157168274181004e-10 -2.9055399894714355 0.9651829600334167 -0.10290198773145676 1.6915460698818663e-10 -2.1093438107300244e-10 8.157104436357088e-10 -10.27859878540039 0.73180091381073 -0.025912299752235413 1.6915460698818663e-10 -2.1095981905805417e-10 8.157041153644684e-10 -2.2216696739196777 -0.7334870100021362 0.2089199721813202 -0.0 0.0 -0.0 12.16560173034668 -40.05449676513672 9.75270938873291 -0.8559730052947998 57.23859786987305 1.5592800378799438 -6.766049861907959 -20.59109878540039 -13.724699020385742 -0.0 0.0 -0.0 -7.910619735717773 -44.16420364379883 -6.872509479522705 1.0807299613952637 60.96680450439453 -1.7022898197174072 5.737369060516357 -13.398599624633789 15.270896911621094
0.12713933400816582 43.22903565329233 0.013750987777964763 -0.5130118727684021 16.113500595092773 10.231001853942871 -2.7268502712249756 7.776729106903076 7.968869209289551 -0.915075957775116 -8.977768898010254 2.162749767303467 -7.857398986816406 16.925399780273438 -9.826998710632324 7.433699131011963 -27.344398498535156 -17.676698684692383 -0.0 0.0 -0.0 -0.0 0.0 -0.0 5.0888872109300376e-14 -1.0177774421860075e-13 1.908332704098764e-14 -32.63819885253906 45.906898498535156 97.5219955444336 -28.413793563842773 -34.61009979248047 74.70140075683594 -0.26325905323028564 14.455698013305664 2.0762898921966553 -4.088666349932879e-10 -8.307608490021323e-10 1.3976374502178146e-09 -6.9295374993672e-10 -1.4472031351075998e-09 2.419721312207912e-09 -4.088666349932879e-10 -8.307608490021323e-10 1.3976311219465742e-09 7.7309088706970215 5.474880218505859 0.41731396317481995 -4.088666349932879e-10 -8.307608490021323e-10 1.3976374502178146e-09 2.9055399894714355 0.9651829600334167 0.10290198773145676 -4.08841210886024e-10 -8.307608490021323e-10 1.3976374502178146e-09 10.27859878540039 0.73180091381073 0.025912299752235413 -4.088666349932879e-10 -8.307608490021323e-10 1.3976374502178146e-09 2.2216696739196777 -0.7334870100021362 -0.2089199721813202 5.0888872109300376e-14 -1.0177774421860075e-13 1.908332704098764e-14 -88.90379333496094 59.7515983581543 17.850000381469727 28.062198638916016 -40.073299407958984 -84.05279541015625 0.07131461054086685 -7.61177921295166 1.0761299133300781 3.333729958754361e-10 1.77663228573266e-09 -1.7801309315501612e-09 5.857818119459068e-10 3.150555594189086e-09 -3.078681309887088e-09 3.333475440125966e-10 1.77663228573266e-09 -1.780118163985378e-09 -7.7309088706970215 5.474880218505859 -0.41731396317481995 3.333729958754361e-10 1.77663228573266e-09 -1.780118163985378e-09 -2.9055399894714355 0.9651829600334167 -0.10290198773145676 3.333475440125966e-10 1.77663228573266e-09 -1.780118163985378e-09 -10.27859878540039 0.73180091381073 -0.025912299752235413 3.333729958754361e-10 1.77663228573266e-09 -1.780118163985378e-09 -2.2216696739196777 -0.7334870100021362 0.2089199721813202 -0.0 0.0 -0.0 12.033499717712402 -39.85930252075195 9.584569931030273 -0.8399208784103394 56.904903411865234 1.5386799573898315 -6.684299468994141 -20.589998245239258 -13.567498207092285 -0.0 0.0 -0.0 -8.15401840209961 -43.71369552612305 -7.4987897872924805 1.0438299179077148 60.419002532958984 -1.6663599014282227 5.809499740600586 -13.496699333190918 15.442601203918457
0.15595911043772967 43.29160360118423 -0.002864788069520133 -0.6680024266242981 15.889101028442383 10.170021057128906 -2.673299551010132 7.563569068908691 8.000150680541992 -0.9119819402694702 -8.918889999389648 2.174539804458618 -7.864519119262695 16.788799285888672 -9.798599243164062 7.562030792236328 -27.088899612426758 -17.585102081298828 -0.0 0.0 -0.0 -0.0 0.0 -0.0 7.633330816395056e-14 -1.0177774421860075e-13 1.5266661632790113e-13 -33.019893646240234 46.253299713134766 98.29779815673828 -28.41069984436035 -34.53049850463867 74.57069396972656 -0.2721419930458069 14.687199592590332 2.1110799312591553 -1.0020781981978644e-09 -6.772036820201777e-10 2.0236405884332953e-09 -1.712028852018932e-09 -1.1822248735526841e-09 3.5065421677415998e-09 -1.0020781981978644e-09 -6.772036820201777e-10 2.0236277098462097e-09 7.7309088706970215 5.474880218505859 0.41731396317481995 -1.0020781981978644e-09 -6.772036820201777e-10 2.0236405884332953e-09 2.9055399894714355 0.9651829600334167 0.10290198773145676 -1.0020781981978644e-09 -6.772036820201777e-10 2.0236405884332953e-09 10.27859878540039 0.73180091381073 0.025912299752235413 -1.0020781981978644e-09 -6.771782024017625e-10 2.0236405884332953e-09 2.2216696739196777 -0.7334870100021362 -0.2089199721813202 7.633330816395056e-14 -1.0177774421860075e-13 1.5266661632790113e-13 -90.2564926147461 60.10149383544922 19.699800491333008 28.05679702758789 -40.10359191894531 -84.10769653320312 0.0758613869547844 -7.83065938949585 1.107509970664978 3.355612177013967e-10 2.8767987991784594e-09 -1.9265191664175063e-09 5.89674808981755e-10 5.0534687545678025e-09 -3.3319424996847147e-09 3.3553576583855715e-10 2.876773486093498e-09 -1.9265127271239635e-09 -7.7309088706970215 5.474880218505859 -0.41731396317481995 3.355612177013967e-10 2.8767987991784594e-09 -1.9265127271239635e-09 -2.9055399894714355 0.9651829600334167 -0.10290198773145676 3.3553576583855715e-10 2.8767987991784594e-09 -1.9265127271239635e-09 -10.27859878540039 0.73180091381073 -0.025912299752235413 3.355612177013967e-10 2.8767987991784594e-09 -1.9265191664175063e-09 -2.2216696739196777 -0.7334870100021362 0.2089199721813202 -0.0 0.0 -0.0 11.846797943115234 -39.69350051879883 9.27383041381836 -0.8246988654136658 56.582698822021484 1.5190198421478271 -6.598900318145752 -20.595197677612305 -13.399700164794922 -0.0 0.0 -0.0 -8.29417896270752 -43.33760070800781 -7.921368598937988 1.0136997699737549 59.956695556640625 -1.6373597383499146 5.878369331359863 -13.557100296020508 15.622797966003418
